<svg xmlns="http://www.w3.org/2000/svg" version="1.1" xmlns:xlink="http://www.w3.org/1999/xlink" xmlns:svgjs="http://svgjs.dev/svgjs" width="1500" height="1419" viewBox="0 0 1500 1419"><g transform="matrix(1,0,0,1,-2.040760098200508,-2.2887096774194333)"><svg viewBox="0 0 262 248" data-background-color="#ebf2f5" preserveAspectRatio="xMidYMid meet" height="1419" width="1500" xmlns="http://www.w3.org/2000/svg" xmlns:xlink="http://www.w3.org/1999/xlink"><g id="tight-bounds" transform="matrix(1,0,0,1,0.35645276381902136,0.4000000000000057)"><svg viewBox="0 0 261.28709447236196 247.2" height="247.2" width="261.28709447236196"><g><svg viewBox="0 0 395.52 374.1958407759861" height="247.2" width="261.28709447236196"><g transform="matrix(1,0,0,1,0,274.0922226263102)"><svg viewBox="0 0 395.52 100.1036181496759" height="100.1036181496759" width="395.52"><g id="textblocktransform"><svg viewBox="0 0 395.52 100.1036181496759" height="100.1036181496759" width="395.52" id="textblock"><g><svg viewBox="0 0 395.52 100.1036181496759" height="100.1036181496759" width="395.52"><g transform="matrix(1,0,0,1,0,0)"><svg width="395.52" viewBox="1.22 -37.65 165.71 41.95" height="100.1036181496759" data-palette-color="#38799c"><path d="M37.4-9.23L37.4-9.23Q36.77-9.23 36.28-9.35 35.79-9.47 35.3-9.62 34.81-9.77 34.28-9.86L34.28-9.86Q34.03-9.91 33.69-9.91L33.69-9.91Q33.4-9.91 33.01-9.86L33.01-9.86Q32.76-8.94 32.76-8.01L32.76-8.01Q32.76-7.28 32.91-6.59L32.91-6.59Q33.2-4.88 33.64-3.15 34.08-1.42 34.42 0.39L34.42 0.39Q34.62 1.37 34.62 2.34L34.62 2.34Q34.62 3.17 34.47 4L34.47 4Q33.89 4.25 33.06 4.3L33.06 4.3 32.91 4.3Q32.18 4.3 31.84 3.81L31.84 3.81Q31.79 2.1 31.52 0.39 31.25-1.32 30.91-3.05 30.57-4.79 30.25-6.52 29.93-8.25 29.74-10.06L29.74-10.06Q24.56-10.01 19.82-9.42 15.09-8.84 10.64-7.62L10.64-7.62Q10.4-6.35 10.25-4.88 10.11-3.42 10.01-1.93 9.91-0.44 9.79 0.98 9.67 2.39 9.47 3.52L9.47 3.52Q9.03 3.86 8.45 4.1L8.45 4.1Q8.11 4.25 7.76 4.25L7.76 4.25Q7.52 4.25 7.23 4.15L7.23 4.15Q6.88 3.17 6.88 2L6.88 2Q6.88 1.9 6.93 1.81L6.93 1.81Q6.93 0.54 7.13-0.85 7.32-2.25 7.52-3.69 7.71-5.13 7.71-6.45L7.71-6.45Q7.42-6.54 7.13-6.54L7.13-6.54Q6.69-6.54 6.25-6.35L6.25-6.35Q5.47-6.05 4.76-5.62 4.05-5.18 3.42-4.83L3.42-4.83Q2.98-4.59 2.59-4.59L2.59-4.59Q2.44-4.59 2.29-4.64L2.29-4.64Q1.81-4.79 1.46-5.27L1.46-5.27Q1.22-5.57 1.22-5.91L1.22-5.91Q1.22-6.15 1.32-6.45L1.32-6.45Q1.46-6.93 2.39-7.3 3.32-7.67 4.42-8.01 5.52-8.35 6.52-8.67 7.52-8.98 7.86-9.38L7.86-9.38Q8.11-12.06 8.2-14.7L8.2-14.7 8.2-16.02Q8.2-17.97 8.06-19.82L8.06-19.82Q7.81-22.31 7.28-24.58 6.74-26.86 5.71-28.81L5.71-28.81Q5.37-29.54 4.96-30.3 4.54-31.05 4.3-31.84L4.3-31.84Q4.05-32.42 4.05-32.96L4.05-32.96Q4.05-33.11 4.1-33.25L4.1-33.25Q4.15-33.89 4.74-34.38L4.74-34.38Q6.05-34.38 6.74-33.5 7.42-32.62 7.86-31.4 8.3-30.18 8.69-28.91 9.08-27.64 9.81-26.86L9.81-26.86Q10.6-22.85 10.72-18.7 10.84-14.55 10.94-10.21L10.94-10.21Q15.09-11.23 19.68-11.96L19.68-11.96Q23.24-12.55 27.25-12.55L27.25-12.55Q28.32-12.55 29.39-12.5L29.39-12.5 29.39-13.18Q29.39-14.21 29.49-15.23L29.49-15.23Q29.64-16.6 29.83-17.99 30.03-19.38 30.2-20.78 30.37-22.17 30.37-23.58L30.37-23.58Q30.37-26.37 31.13-29.22 31.88-32.08 33.01-34.38L33.01-34.38Q33.3-35.01 33.52-35.62 33.74-36.23 34.03-36.69 34.33-37.16 34.81-37.45L34.81-37.45Q35.21-37.65 35.84-37.65L35.84-37.65 36.08-37.65Q36.57-37.16 36.57-36.43L36.57-36.43Q36.57-36.23 36.52-35.99L36.52-35.99Q36.33-34.96 35.79-33.79 35.25-32.62 34.62-31.49 33.98-30.37 33.79-29.49L33.79-29.49Q32.91-25.63 32.67-21.41 32.42-17.19 32.32-12.84L32.32-12.84Q33.35-12.84 34.69-12.65 36.04-12.45 37.01-12.04 37.99-11.62 38.28-10.94L38.28-10.94Q38.33-10.79 38.33-10.64L38.33-10.64Q38.33-10.06 37.4-9.23ZM72.17-1.17L72.17-1.17Q72.02-0.59 71.82-0.1 71.63 0.39 71.19 0.59L71.19 0.59Q70.94 0.68 70.6 0.68L70.6 0.68Q70.36 0.68 70.11 0.63L70.11 0.63Q69.43 0.54 68.7 0.24 67.97-0.05 67.31-0.44 66.65-0.83 66.31-1.17L66.31-1.17Q65.62-1.81 65.21-2.64 64.79-3.47 64.45-4.32 64.11-5.18 63.84-5.91 63.57-6.64 63.18-7.08L63.18-7.08Q62.64-6.84 62.3-6.45 61.96-6.05 61.64-5.57 61.33-5.08 61.01-4.57 60.69-4.05 60.25-3.66L60.25-3.66Q59.23-2.64 57.79-1.83 56.35-1.03 54.69-0.59L54.69-0.59Q53.27-0.2 51.76-0.2L51.76-0.2Q51.51-0.2 51.27-0.24L51.27-0.24Q49.51-0.29 47.85-1.03L47.85-1.03Q46.14-2.2 44.75-4 43.36-5.81 42.53-8.01 41.7-10.21 41.6-12.7L41.6-12.7Q41.55-12.99 41.55-13.28L41.55-13.28Q41.55-15.43 42.33-17.68L42.33-17.68Q42.62-18.46 43.14-19.41 43.65-20.36 44.28-21.24 44.92-22.12 45.63-22.85 46.34-23.58 47.02-24.02L47.02-24.02Q48.78-25.1 50.88-25.44L50.88-25.44Q52-25.59 53.12-25.59L53.12-25.59Q54.05-25.59 55.03-25.49L55.03-25.49Q57.13-25.2 59.1-24.39 61.08-23.58 62.69-22.41L62.69-22.41Q63.13-22.85 63.79-23.36 64.45-23.88 65.18-24.22L65.18-24.22Q65.82-24.46 66.45-24.46L66.45-24.46 66.7-24.46Q67.43-24.41 68.11-23.73L68.11-23.73Q68.5-22.22 68.5-20.75L68.5-20.75 68.5-20.02Q68.36-18.21 67.87-16.53 67.38-14.84 66.67-13.33 65.96-11.82 65.33-10.5L65.33-10.5Q66.06-8.2 66.97-6.1 67.87-4 69.38-2.49L69.38-2.49 69.92-2.49Q70.7-2.49 71.09-2.29L71.09-2.29Q71.63-1.95 72.17-1.17ZM65.67-21.29L65.67-21.29Q64.69-19.87 64.6-18.16L64.6-18.16 64.6-17.38Q64.6-16.02 64.84-14.4L64.84-14.4Q65.13-14.99 65.52-15.94 65.92-16.89 66.16-17.92L66.16-17.92Q66.31-18.75 66.31-19.53L66.31-19.53 66.31-19.87Q66.26-20.75 65.67-21.29ZM62.4-10.84L62.4-10.84Q62.2-12.84 62.01-15.04L62.01-15.04Q61.86-16.31 61.86-17.53L61.86-17.53Q61.86-18.36 61.91-19.14L61.91-19.14Q61.28-20.12 60.2-20.9 59.13-21.68 57.86-22.17 56.59-22.66 55.17-22.85L55.17-22.85Q54.34-22.95 53.61-22.95L53.61-22.95Q53.02-22.95 52.44-22.9L52.44-22.9Q50.73-22.71 49.46-22.09 48.19-21.48 47.21-20.61L47.21-20.61Q46.68-19.63 46.04-18.46 45.41-17.29 44.94-15.97 44.48-14.65 44.28-13.23L44.28-13.23Q44.24-12.7 44.24-12.21L44.24-12.21Q44.24-11.28 44.43-10.35L44.43-10.35Q44.63-9.57 45.04-8.62 45.46-7.67 46.02-6.74 46.58-5.81 47.24-5.03 47.9-4.25 48.53-3.81L48.53-3.81Q49.51-3.13 50.83-2.93L50.83-2.93Q51.66-2.78 52.59-2.78L52.59-2.78Q53.07-2.78 53.56-2.83L53.56-2.83Q55.17-3.32 56.39-4.2 57.61-5.08 58.64-6.15 59.67-7.23 60.57-8.45 61.47-9.67 62.4-10.84ZM99.36-14.99L99.36-14.99 99.36-14.45Q99.36-13.38 99.21-12.4L99.21-12.4Q99.12-11.67 99.12-11.08L99.12-11.08Q99.12-10.64 99.16-10.25L99.16-10.25Q98.58-7.71 97.36-5.42 96.14-3.13 94.38-1.44 92.62 0.24 90.33 1.12L90.33 1.12Q88.67 1.76 86.81 1.76L86.81 1.76Q86.08 1.76 85.3 1.66L85.3 1.66Q82.76 1.37 80.98 0.1 79.19-1.17 78.02-3.13 76.85-5.08 76.26-7.59 75.68-10.11 75.53-12.84L75.53-12.84Q75.48-13.67 75.48-14.6L75.48-14.6Q75.48-15.53 75.53-16.55L75.53-16.55Q75.58-17.53 75.58-18.55L75.58-18.55Q75.58-19.53 75.53-20.51L75.53-20.51Q75.48-21.39 75.29-22.41L75.29-22.41Q75.14-23 75.14-23.44L75.14-23.44Q75.14-23.73 75.19-23.93L75.19-23.93Q75.34-24.51 75.7-24.8 76.07-25.1 76.56-25.15L76.56-25.15 76.7-25.15Q77.09-25.15 77.49-25L77.49-25Q77.92-24.76 78.32-24.27L78.32-24.27Q78.36-22.71 78.36-21.09L78.36-21.09Q78.36-19.48 78.32-17.87L78.32-17.87Q78.27-16.94 78.27-16.06L78.27-16.06Q78.27-13.82 78.46-11.72L78.46-11.72Q78.71-8.79 79.58-6.32 80.46-3.86 82.51-2.25L82.51-2.25Q83.1-1.81 83.86-1.56 84.61-1.32 85.44-1.22 86.27-1.12 87.18-1.1 88.08-1.07 88.91-1.07L88.91-1.07Q91.55-2.05 93.13-3.98 94.72-5.91 95.94-8.25L95.94-8.25Q96.24-10.01 96.43-11.55 96.63-13.09 96.72-14.6L96.72-14.6 96.72-17.68Q96.63-19.19 96.43-21L96.43-21Q96.09-21.44 95.89-22.12L95.89-22.12Q95.75-22.61 95.75-23.14L95.75-23.14 95.75-23.39Q95.8-24.02 96.09-24.51 96.38-25 97.07-25.1L97.07-25.1 97.26-25.1Q97.85-25.1 98.14-24.85L98.14-24.85Q98.48-24.56 98.63-24.07L98.63-24.07Q98.77-23.63 98.77-23.1L98.77-23.1 98.77-22.95Q98.73-22.31 98.68-21.83L98.68-21.83Q98.68-21.19 98.77-20.29 98.87-19.38 98.99-18.43 99.12-17.48 99.24-16.55 99.36-15.63 99.36-14.99ZM123.77 1.56L123.77 1.56Q123.63 2.25 123.48 2.86 123.33 3.47 122.94 3.86L122.94 3.86Q120.4 3.13 118.57 1.66 116.74 0.2 115.23-1.56 113.71-3.32 112.3-5.2 110.88-7.08 109.22-8.69L109.22-8.69Q108.73-7.52 108.54-6.03 108.34-4.54 108.24-2.98 108.15-1.42 108.02 0.15 107.9 1.71 107.61 3.03L107.61 3.03Q106.93 3.47 106.44 3.47L106.44 3.47Q105.95 3.47 105.17 3.37L105.17 3.37Q104.83 2.88 104.78 2.39L104.78 2.39 104.78 2Q104.78 1.71 104.83 1.37L104.83 1.37Q104.88 0.88 105.05 0.37 105.22-0.15 105.31-0.73L105.31-0.73Q105.75-3.03 105.95-5.81 106.14-8.59 106.19-11.57L106.19-11.57 106.19-12.74Q106.19-15.14 106.1-17.53L106.1-17.53Q106-20.46 105.8-23.1L105.8-23.1Q105.66-24.8 105.34-26.39 105.02-27.98 104.66-29.57 104.29-31.15 103.95-32.76 103.61-34.38 103.36-36.13L103.36-36.13Q103.75-36.52 104.34-36.87L104.34-36.87Q104.58-36.96 104.88-36.96L104.88-36.96Q105.27-36.96 105.66-36.77L105.66-36.77Q106.68-34.18 107.29-31.3 107.9-28.42 108.22-25.37 108.54-22.31 108.66-19.14 108.78-15.97 108.88-12.79L108.88-12.79Q109.9-13.23 110.95-14.09 112-14.94 113.05-16.02 114.1-17.09 115.08-18.26 116.06-19.43 116.89-20.46L116.89-20.46Q117.08-20.75 117.5-21.19 117.91-21.63 118.43-22.05 118.94-22.46 119.47-22.78 120.01-23.1 120.5-23.1L120.5-23.1Q121.18-23.05 121.62-22.66L121.62-22.66Q121.97-22.31 121.97-21.73L121.97-21.73 121.97-21.44Q121.92-21.04 121.7-20.78 121.48-20.51 121.18-20.34 120.89-20.17 120.57-20 120.26-19.82 120.01-19.63L120.01-19.63Q119.08-18.8 118.13-17.68 117.18-16.55 116.13-15.38 115.08-14.21 113.98-13.11 112.88-12.01 111.66-11.33L111.66-11.33Q113.37-8.35 115.5-5.86 117.62-3.37 119.82-0.88L119.82-0.88Q121.09-0.49 121.92 0.24 122.75 0.98 123.77 1.56ZM156.87-1.17L156.87-1.17Q156.73-0.59 156.53-0.1 156.34 0.39 155.9 0.59L155.9 0.59Q155.65 0.68 155.31 0.68L155.31 0.68Q155.07 0.68 154.82 0.63L154.82 0.63Q154.14 0.54 153.41 0.24 152.68-0.05 152.02-0.44 151.36-0.83 151.02-1.17L151.02-1.17Q150.33-1.81 149.92-2.64 149.5-3.47 149.16-4.32 148.82-5.18 148.55-5.91 148.28-6.64 147.89-7.08L147.89-7.08Q147.35-6.84 147.01-6.45 146.67-6.05 146.35-5.57 146.03-5.08 145.72-4.57 145.4-4.05 144.96-3.66L144.96-3.66Q143.94-2.64 142.49-1.83 141.05-1.03 139.39-0.59L139.39-0.59Q137.98-0.2 136.46-0.2L136.46-0.2Q136.22-0.2 135.98-0.24L135.98-0.24Q134.22-0.29 132.56-1.03L132.56-1.03Q130.85-2.2 129.46-4 128.07-5.81 127.24-8.01 126.41-10.21 126.31-12.7L126.31-12.7Q126.26-12.99 126.26-13.28L126.26-13.28Q126.26-15.43 127.04-17.68L127.04-17.68Q127.33-18.46 127.85-19.41 128.36-20.36 128.99-21.24 129.63-22.12 130.34-22.85 131.04-23.58 131.73-24.02L131.73-24.02Q133.49-25.1 135.59-25.44L135.59-25.44Q136.71-25.59 137.83-25.59L137.83-25.59Q138.76-25.59 139.74-25.49L139.74-25.49Q141.84-25.2 143.81-24.39 145.79-23.58 147.4-22.41L147.4-22.41Q147.84-22.85 148.5-23.36 149.16-23.88 149.89-24.22L149.89-24.22Q150.53-24.46 151.16-24.46L151.16-24.46 151.41-24.46Q152.14-24.41 152.82-23.73L152.82-23.73Q153.21-22.22 153.21-20.75L153.21-20.75 153.21-20.02Q153.07-18.21 152.58-16.53 152.09-14.84 151.38-13.33 150.67-11.82 150.04-10.5L150.04-10.5Q150.77-8.2 151.67-6.1 152.58-4 154.09-2.49L154.09-2.49 154.63-2.49Q155.41-2.49 155.8-2.29L155.8-2.29Q156.34-1.95 156.87-1.17ZM150.38-21.29L150.38-21.29Q149.4-19.87 149.31-18.16L149.31-18.16 149.31-17.38Q149.31-16.02 149.55-14.4L149.55-14.4Q149.84-14.99 150.23-15.94 150.62-16.89 150.87-17.92L150.87-17.92Q151.02-18.75 151.02-19.53L151.02-19.53 151.02-19.87Q150.97-20.75 150.38-21.29ZM147.11-10.84L147.11-10.84Q146.91-12.84 146.72-15.04L146.72-15.04Q146.57-16.31 146.57-17.53L146.57-17.53Q146.57-18.36 146.62-19.14L146.62-19.14Q145.99-20.12 144.91-20.9 143.84-21.68 142.57-22.17 141.3-22.66 139.88-22.85L139.88-22.85Q139.05-22.95 138.32-22.95L138.32-22.95Q137.73-22.95 137.15-22.9L137.15-22.9Q135.44-22.71 134.17-22.09 132.9-21.48 131.92-20.61L131.92-20.61Q131.39-19.63 130.75-18.46 130.12-17.29 129.65-15.97 129.19-14.65 128.99-13.23L128.99-13.23Q128.95-12.7 128.95-12.21L128.95-12.21Q128.95-11.28 129.14-10.35L129.14-10.35Q129.34-9.57 129.75-8.62 130.17-7.67 130.73-6.74 131.29-5.81 131.95-5.03 132.61-4.25 133.24-3.81L133.24-3.81Q134.22-3.13 135.54-2.93L135.54-2.93Q136.37-2.78 137.29-2.78L137.29-2.78Q137.78-2.78 138.27-2.83L138.27-2.83Q139.88-3.32 141.1-4.2 142.32-5.08 143.35-6.15 144.37-7.23 145.28-8.45 146.18-9.67 147.11-10.84ZM162.39-31.45L162.39-31.64Q163.37-32.23 164-32.23L164-32.23 164.25-32.23Q164.88-32.08 165.12-31.54L165.12-31.54Q165.22-31.2 165.22-30.76L165.22-30.76 165.22-30.32Q165.08-29.59 164.68-29.15L164.68-29.15Q164.29-28.76 163.76-28.76L163.76-28.76Q163.66-28.76 163.61-28.81L163.61-28.81Q162.93-28.86 162.1-29.83L162.1-29.83Q162.05-30.03 162.05-30.18L162.05-30.18Q162.05-30.57 162.24-30.81L162.24-30.81Q162.39-31.05 162.39-31.45L162.39-31.45ZM166.3 2.64L166.3 2.64Q165.81 2.83 165.42 2.83L165.42 2.83Q165.12 2.83 164.93 2.69L164.93 2.69Q164.39 2.44 164.05 1.83 163.71 1.22 163.51 0.46 163.32-0.29 163.07-0.93L163.07-0.93Q162.24-3.03 161.66-5.71 161.07-8.4 160.83-11.28L160.83-11.28Q160.63-13.67 160.63-16.11L160.63-16.11 160.63-17.09Q160.68-19.97 161.12-22.46L161.12-22.46Q161.76-23.05 162.49-23.05L162.49-23.05 162.68-23.05Q163.51-22.95 163.85-22.17L163.85-22.17Q164-21.88 164-21.53L164-21.53Q164-21.19 163.9-20.8L163.9-20.8Q163.66-19.97 163.56-19.04L163.56-19.04Q163.46-17.97 163.46-16.65L163.46-16.65 163.46-15.77Q163.51-13.92 163.56-12.7L163.56-12.7Q163.56-11.67 163.63-10.42 163.71-9.18 163.9-7.91 164.1-6.64 164.37-5.42 164.64-4.2 165.03-3.22L165.03-3.22Q165.32-2.39 165.81-1.64 166.3-0.88 166.61-0.2 166.93 0.49 166.93 1.17L166.93 1.17Q166.93 1.9 166.3 2.64Z" opacity="1" transform="matrix(1,0,0,1,0,0)" fill="#38799c" class="wordmark-text-0" data-fill-palette-color="primary" id="text-0"></path></svg></g></svg></g></svg></g></svg></g><g transform="matrix(1,0,0,1,84.34595044514776,0)"><svg viewBox="0 0 226.82809910970445 226.82809910970445" height="226.82809910970445" width="226.82809910970445"><g><svg></svg></g><g id="icon-0"><svg viewBox="0 0 226.82809910970445 226.82809910970445" height="226.82809910970445" width="226.82809910970445"><g><path d="M0 113.414c0-62.637 50.777-113.414 113.414-113.414 62.637 0 113.414 50.777 113.414 113.414 0 62.637-50.777 113.414-113.414 113.414-62.637 0-113.414-50.777-113.414-113.414zM113.414 217.801c57.651 0 104.387-46.735 104.387-104.387 0-57.651-46.735-104.387-104.387-104.387-57.651 0-104.387 46.735-104.387 104.387 0 57.651 46.735 104.387 104.387 104.387z" data-fill-palette-color="accent" fill="#38799c" stroke="transparent"></path></g><g transform="matrix(1,0,0,1,65.79034970598849,48.24352905119882)"><svg viewBox="0 0 95.24739969772749 130.3410410073068" height="130.3410410073068" width="95.24739969772749"><g><svg xmlns="http://www.w3.org/2000/svg" xmlns:xlink="http://www.w3.org/1999/xlink" version="1.1" x="0" y="0" viewBox="14.015321403660483 0.7485552376143957 71.97167859633952 98.4894447623856" enable-background="new 0 0 100 100" xml:space="preserve" height="130.3410410073068" width="95.24739969772749" class="icon-dxe-0" data-fill-palette-color="accent" id="dxe-0"><path d="M79.175 31.681C78.234 24.263 76.634 18.287 75.53 14.772 73.969 9.8 70.872 1.46 67.677 1.46S61.386 9.8 59.824 14.772C58.519 18.924 56.523 26.507 55.74 35.852L55.731 35.848C55.268 36.766 51.211 44.922 51.211 48.39 51.211 49.96 51.922 50.885 52.52 51.383 53.519 52.216 54.846 52.409 55.832 52.417 56.917 63.923 59.922 74.329 62.874 80.452 61.926 82.369 57.706 91.148 56.757 97.336A1.497 1.497 0 0 0 58.984 98.863C59.024 98.841 62.987 96.603 67.366 96.603H67.678C72.059 96.603 76.02 98.841 76.06 98.863A1.5 1.5 0 0 0 77.653 98.8C78.128 98.474 78.375 97.905 78.288 97.336 77.384 91.441 73.512 83.195 72.328 80.769 75.22 74.914 78.192 64.885 79.392 53.687 80.034 53.723 80.688 54.247 81.491 54.962 82.115 55.517 82.858 56.178 83.734 56.178 83.979 56.178 84.233 56.127 84.499 56.008 85.765 55.44 85.987 53.905 85.987 50.89 85.985 42.907 80.304 33.476 79.175 31.681M54.438 49.079C54.37 49.021 54.208 48.886 54.208 48.39 54.208 47.473 54.71 45.814 55.409 43.97 55.416 45.796 55.478 47.613 55.593 49.411 55.133 49.381 54.684 49.285 54.438 49.079M69.319 80.069C69.086 80.516 69.094 81.051 69.34 81.49 69.671 82.152 73.131 89.134 74.71 94.972 72.896 94.294 70.384 93.604 67.677 93.604H67.365C64.659 93.604 62.147 94.294 60.333 94.972 61.7 89.921 64.474 84.014 65.411 82.084A1.497 1.497 0 0 0 66.034 80.068C62.358 73.035 58.4 58.634 58.4 43.642 58.4 38.08 58.926 32.811 59.735 28.041 62.34 29.531 64.768 29.88 66.423 29.88 67.706 29.88 68.527 29.678 68.609 29.657A1.5 1.5 0 0 0 67.863 26.754C67.827 26.763 64.284 27.619 60.326 24.876 62.557 13.952 66.125 6.215 67.678 4.637 70.023 7.017 76.953 23.412 76.953 43.641 76.952 58.633 72.996 73.034 69.319 80.069M82.961 52.269C82.158 51.596 81.03 50.817 79.665 50.701 79.843 48.376 79.949 46.017 79.949 43.642 79.949 42.149 79.908 40.689 79.84 39.259 81.431 42.714 82.988 47.068 82.988 50.89 82.988 51.452 82.978 51.905 82.961 52.269M70.296 36.332C70.803 36.933 75.202 42.313 73.441 46.103 72.507 48.116 70.194 49.136 66.566 49.136 62.95 49.136 60.65 48.12 59.73 46.117 57.989 42.325 62.485 36.925 63.003 36.322A1.498 1.498 0 0 1 65.276 38.275C63.74 40.069 61.78 43.405 62.453 44.867 62.831 45.687 64.292 46.139 66.565 46.139 68.856 46.139 70.333 45.678 70.722 44.841 71.406 43.373 69.504 40.049 68.004 38.264A1.5 1.5 0 0 1 70.296 36.332M19.737 42.094C19.789 42.156 19.842 42.217 19.905 42.271 19.927 42.291 19.956 42.297 19.979 42.315A15.17 15.17 0 0 0 29.855 45.964C30.55 45.964 31.23 45.901 31.901 45.81H31.903C31.977 45.81 32.053 45.805 32.129 45.793 32.191 45.784 32.247 45.764 32.306 45.748A15.26 15.26 0 0 0 42.68 38.937C42.709 38.899 42.745 38.869 42.771 38.828 42.815 38.758 42.847 38.685 42.878 38.612A15.15 15.15 0 0 0 44.443 26.253C44.439 26.24 44.439 26.227 44.435 26.214 44.434 26.209 44.431 26.205 44.429 26.201 43.13 22.007 40.062 18.593 36.106 16.806 36.057 16.779 36.012 16.747 35.96 16.724 35.936 16.714 35.912 16.71 35.888 16.701A15.2 15.2 0 0 0 29.855 15.452C29.137 15.452 27.803 15.555 26.851 15.674L25.602 11.568C26.082 10.968 26.561 10.4 27.034 9.855 30.786 8.34 34.03 7.534 36.43 7.534A1.498 1.498 0 1 0 36.43 4.537C35.023 4.537 33.394 4.765 31.599 5.202L33.636 3.373A1.498 1.498 0 0 0 31.71 1.079C31.42 1.306 28.439 3.684 25.043 7.523A1.5 1.5 0 0 0 24.772 7.832C20.027 13.272 14.601 21.501 14.601 30.707 14.601 35.236 16.595 39.298 19.737 42.094M17.698 32.207L26.589 32.208 20.796 38.939A12.2 12.2 0 0 1 17.698 32.207M42.114 30.708C42.114 32.569 41.685 34.327 40.94 35.909L33.419 31.18 41.913 28.561C42.038 29.259 42.114 29.974 42.114 30.708M23.06 40.903L28.861 34.162 30.185 42.951C30.075 42.954 29.967 42.968 29.856 42.968 27.343 42.968 25.006 42.206 23.06 40.903M33.149 42.505L31.824 33.716 39.35 38.448A12.3 12.3 0 0 1 33.149 42.505M41.031 25.696L32.536 28.315 36.091 20.173A12.33 12.33 0 0 1 41.031 25.696M29.855 18.45C31.069 18.45 32.241 18.634 33.348 18.964L30.108 26.386 27.737 18.59C28.492 18.513 29.38 18.45 29.855 18.45M27.835 29.211L17.668 29.21C18.064 23.82 20.508 18.752 23.38 14.56zM21.917 22.302A1.061 1.061 0 1 1 24.039 22.304 1.061 1.061 0 0 1 21.917 22.302M67.071 19.683A1.061 1.061 0 1 1 64.949 19.681 1.061 1.061 0 0 1 67.071 19.683M31.79 59.293C24.021 59.293 16.73 66.741 14.06 77.406 14.025 77.55 14.01 77.698 14.017 77.844 14.021 77.929 14.029 78.02 14.034 78.108 14.03 78.165 14.014 78.219 14.017 78.276 14.019 78.317 14.025 78.418 14.037 78.569 14.031 78.634 14.015 78.697 14.017 78.762A15 15 0 0 0 14.483 81.859C15.812 89.4 20.046 99.238 29.826 99.238 33.922 99.238 37.836 97.155 40.847 93.373 45.067 88.075 47.019 80.049 45.595 73.857 43.5 64.738 38.339 59.293 31.79 59.293M17.427 81.023A37 37 0 0 1 17.091 78.628C18.046 75.357 20.14 73.638 21.792 73.638 23.306 73.638 24.509 75.097 25.095 77.643 25.505 79.43 24.902 81.858 23.661 83.415 23.124 84.09 22.231 84.894 21.034 84.894 18.915 84.895 17.905 82.795 17.427 81.023M20.038 87.793C20.391 87.861 20.726 87.892 21.034 87.892H21.035C22.901 87.892 24.665 86.966 26.005 85.284 27.825 83 28.632 79.66 28.015 76.973 27.105 73.009 24.778 70.642 21.792 70.642 21.542 70.642 21.294 70.664 21.048 70.697 22.967 68.663 25.171 67.611 27.104 67.611 30.538 67.611 33.209 70.665 34.433 75.991 35.284 79.689 34.096 84.51 31.546 87.713 30.38 89.178 28.421 90.923 25.704 90.923 23.134 90.923 21.319 89.593 20.038 87.793M38.503 91.508C36.782 93.668 33.882 96.242 29.825 96.242 27.021 96.242 24.829 95.19 23.111 93.591 23.906 93.799 24.764 93.919 25.704 93.919 28.755 93.919 31.662 92.377 33.891 89.579 36.971 85.71 38.395 79.846 37.354 75.319 35.814 68.616 31.982 64.613 27.104 64.613 26.378 64.613 25.659 64.702 24.951 64.87 26.996 63.273 29.305 62.29 31.791 62.29 36.921 62.29 40.889 66.751 42.675 74.528 43.907 79.893 42.191 86.874 38.503 91.508" fill="#38799c" data-fill-palette-color="accent"></path></svg></g></svg></g></svg></g></svg></g><g></g></svg></g><defs></defs></svg><rect width="261.28709447236196" height="247.2" fill="none" stroke="none" visibility="hidden"></rect></g></svg></g></svg>